<svg width="20" height="20" viewBox="0 0 20 20" fill="none" xmlns="http://www.w3.org/2000/svg">
<path d="M12.3741 5.07578H7.62599L8.49221 2.7158C9.00552 1.3169 10.9946 1.3169 11.5079 2.7158L12.3741 5.07578Z" fill="#BB7EFF"/>
<path d="M14.5397 10.8689H5.4551L6.47103 8.21529L6.59936 7.87358H13.3954L13.5238 8.21529L14.5397 10.8689Z" fill="#BB7EFF"/>
<path d="M18.3307 17.2067V17.6018C18.3307 18.0076 18.0046 18.3333 17.5982 18.3333H2.3966C1.99558 18.3333 1.66406 18.0076 1.66406 17.6018V17.2067C1.66406 16.8062 1.99558 16.4752 2.3966 16.4752H3.3056L4.38035 13.6667H15.6144L16.6892 16.4752H17.5982C18.0046 16.4752 18.3307 16.8062 18.3307 17.2067Z" fill="#BB7EFF"/>
</svg>
